<svg id="Layer_1" data-name="Layer 1" xmlns="http://www.w3.org/2000/svg" viewBox="0 0 567.55 114.18"><defs><style>.cls-1{fill:#beb3b6;}.cls-2{fill:#8dc742;}.cls-3{fill:#1f646b;}.cls-4{fill:#e0dc37;}.cls-5{fill:#e0dc34;}.cls-6{fill:#91c848;}.cls-7{fill:#5b5b5a;}</style></defs><title>combine-full</title><circle class="cls-1" cx="124.95" cy="48.4" r="9.87"/><circle class="cls-2" cx="85.41" cy="49.25" r="15.4"/><circle class="cls-3" cx="110.42" cy="77.57" r="15.4"/><path class="cls-1" d="M205.57,77.91q0-14.55,0-29.09c0-4,.51-4.45,4.43-4.47s7.81,0,11.71,0,4.44.44,4.59,4.33c0,.94-.47,2.16.61,2.75s1.81-.52,2.51-1.15c4.82-4.33,10-7.48,16.91-7.39,7.49.09,12.88,3.55,17.25,9.15,2.1,2.69,2.68,2.84,4.57.13,7.67-11.08,26.89-13,35.61-1.72,2.95,3.81,4.23,8.22,4.87,12.88,1,7.2.61,14.44.64,21.67,0,7.8-.07,15.61.05,23.41,0,2.6-.84,3.6-3.49,3.51-4.56-.15-9.15-.17-13.71,0-2.87.11-3.61-1.07-3.59-3.75.09-13.27,0-26.53.06-39.8a10,10,0,0,0-2.41-6.74C281,55.45,272.88,59.36,270,66a30.76,30.76,0,0,0-2.13,12q-.21,14.88,0,29.77c0,3-.72,4.28-3.93,4.1-4.34-.23-8.71-.19-13.05,0-2.89.12-3.91-.84-3.88-3.81.12-12.93.13-25.86,0-38.79-.05-3.73-.39-7.66-4.47-9.7-3.69-1.84-6.83-1.28-10,1.51-4.66,4.07-6.08,9.43-6.14,15.25-.11,10.37,0,20.74-.05,31.1,0,4.38,0,4.38-4.53,4.39-3.91,0-7.81,0-11.72,0-3.71,0-4.44-.7-4.45-4.53C205.54,97.53,205.57,87.72,205.57,77.91Z" transform="translate(-13.87 -14.55)"/><path class="cls-4" d="M435.91,78.18c0-10,.09-20.07-.06-30.1,0-3.13,1.26-4.2,4.15-4.16,4,.07,8,0,12.05,0s4.34.33,4.43,4.39c0,1.05-.59,2.46.58,3.07s2-.75,2.71-1.47c6.89-6.66,15.06-8.86,24.29-6.68,6.8,1.61,11.06,6.32,13.77,12.55,2.37,5.44,2.46,11.3,2.59,17,.25,11.37.09,22.74.07,34.11,0,4.72-.45,5.19-5.1,5.25-4,.06-8,0-12.05,0-2.91.07-4.09-.89-4.06-4.08.12-12.92.28-25.85-.35-38.77-.25-5.34-2.28-8.45-6.73-10-3.46-1.23-8.38.52-11.25,4.06-3.41,4.2-4.33,9.26-4.42,14.42-.19,10-.06,20.06-.08,30.09,0,4.14-.16,4.27-4.42,4.29s-8.48,0-12.72,0c-2.46,0-3.5-.91-3.46-3.61C436,98.47,435.91,88.33,435.91,78.18Z" transform="translate(-13.87 -14.55)"/><path class="cls-5" d="M581.39,75c-.55,4.3,1.79,6.81-4,6.82-11.92.06-23.62,0-35.52,0-17.8-1.82,4.2,16.23,13.63,6,1.34-1.23,2.77-2.29,4.39-1.68,4.09,2.6,13.8,7.08,14.47,10.77-1.87,6.66-14.49,12.59-21.22,14.22-28,5.75-50.63-26.89-35.07-51C536.53,31.57,575.92,43.15,581.39,75ZM546.7,71.75c20.29,2,6.9-7.39-.75-7-3.18-.14-11.73,3.6-8.79,6.86C540.11,72.06,543.4,71.59,546.7,71.75Z" transform="translate(-13.87 -14.55)"/><path class="cls-3" d="M37.15,70.59c-5.33,7.26-.78,18.1,8,20.17,7.64,2.35,12.31-5.58,16-4.72,13.64,9.49,19,10.66,8.43,18.66C44.88,124.09,10.7,104,14.1,74.45c2.33-33.78,47.81-42.1,62.68-14.8C74.35,64.59,67,67.11,61.88,71c-3.09,1.27-7.43-6.56-12.22-6.14A12.89,12.89,0,0,0,37.15,70.59Z" transform="translate(-13.87 -14.55)"/><path class="cls-6" d="M402.66,77.09q0-15.21,0-30.42c0-1.59-.06-3.09,1.52-4.14,1.31-.86,1.36-1.65-.07-2.78-7.57-6-8.41-19.43,4.4-24.37,7.14-2.76,15.22,1.64,17.29,9.74,1.43,5.59.06,10.66-4.6,14.42-1.59,1.28-2,2,.3,2.74,1.32.44,1.55,1.74,1.55,3q0,31.94,0,63.87c0,2-.76,2.77-2.77,2.74q-7.19-.14-14.38,0c-2.45,0-3.31-1-3.29-3.39C402.71,98.05,402.66,87.57,402.66,77.09Z" transform="translate(-13.87 -14.55)"/><path class="cls-7" d="M141.67,36.59c8.23.14,16.73-.23,25.26.26,11.49,3.45,1,12.79,10.77,11.32.49-24.33-26.56-11.94-36-17C141.66,31.79,141.67,36.46,141.67,36.59Z" transform="translate(-13.87 -14.55)"/><path class="cls-7" d="M139.8,113.44a.52.52,0,0,1-.44-.11c-8.82-.2-32.76,6.7-42.35-6.71-3.44-7.12-1.28-14.37-2-28.18a8.74,8.74,0,0,0,4.19.55c2.31,26.08-13.12,33.63,40.58,31.06C140.54,111.19,141.12,112.32,139.8,113.44Z" transform="translate(-13.87 -14.55)"/><path class="cls-2" d="M370.9,46.52a33.29,33.29,0,0,0-25-1.78c-2.75.88-3.29-.15-3.26-2.65.1-6.79,0-13.59.08-20.38,0-2.82-1-4.08-3.92-4-4.12.16-8.25,0-12.37,0-4.28,0-4.87.58-4.87,4.79q0,21.22,0,42.45V86.76c0,7.24.09,14.48,0,21.72-.05,2.89,1,4.07,3.91,3.93s5.81.14,8.69-.08c3.16-.24,6.65,1.24,9.41-1.73.59-.62,1.92-.09,2.89.26a22.51,22.51,0,0,0,3.15,1,34.61,34.61,0,0,0,21.3-65.33ZM356.19,91a13.14,13.14,0,0,1-.12-26.28A13.14,13.14,0,1,1,356.19,91Z" transform="translate(-13.87 -14.55)"/><circle class="cls-3" cx="112.64" cy="19.35" r="15.4"/><circle class="cls-4" cx="142.69" cy="96.44" r="17.74"/><circle class="cls-2" cx="162.09" cy="55.04" r="22.35"/></svg>